<?xml version="1.0" encoding="utf-8"?>
<!DOCTYPE svg PUBLIC "-//W3C//DTD SVG 1.1//EN" "http://www.w3.org/Graphics/SVG/1.1/DTD/svg11.dtd">
<svg version="1.1" id="Layer_1" xmlns="http://www.w3.org/2000/svg" xmlns:xlink="http://www.w3.org/1999/xlink" x="0px" y="0px"
	 width="21px" height="19px" viewBox="0 0 21 19" enable-background="new 0 0 21 19" xml:space="preserve">
<path fill="#ffffff" d="M7.45,13.722c-0.256,0-0.512-0.098-0.707-0.293c-0.391-0.391-0.391-1.023,0-1.414L17.751,1.006
	c0.391-0.391,1.023-0.391,1.414,0s0.391,1.023,0,1.414L8.157,13.429C7.962,13.624,7.706,13.722,7.45,13.722z"/>
<path fill="#ffffff" d="M15.476,19H1c-0.552,0-1-0.447-1-1V4.579c0-0.552,0.448-1,1-1h6.333c0.552,0,1,0.448,1,1s-0.448,1-1,1H2V17
	h12.476v-5.263c0-0.553,0.447-1,1-1s1,0.447,1,1V18C16.476,18.553,16.028,19,15.476,19z"/>
<path fill="#ffffff" d="M19.095,9.158c-0.553,0-1-0.448-1-1V2h-6.237c-0.553,0-1-0.448-1-1s0.447-1,1-1h7.237c0.553,0,1,0.448,1,1
	v7.158C20.095,8.71,19.647,9.158,19.095,9.158z"/>
</svg>
