<?xml version="1.0" encoding="utf-8"?>
<!-- Generator: Adobe Illustrator 17.0.0, SVG Export Plug-In . SVG Version: 6.00 Build 0)  -->
<!DOCTYPE svg PUBLIC "-//W3C//DTD SVG 1.1//EN" "http://www.w3.org/Graphics/SVG/1.1/DTD/svg11.dtd">
<svg version="1.1" id="Capa_1" xmlns="http://www.w3.org/2000/svg" xmlns:xlink="http://www.w3.org/1999/xlink" x="0px" y="0px"
	 width="120px" height="58px" viewBox="0 0 120 58" enable-background="new 0 0 120 58" xml:space="preserve">
<path fill="#FFFFFF" d="M32.972,33.856c-2.465,0-4.462-1.998-4.462-4.462s1.998-4.462,4.462-4.462s4.462,1.997,4.462,4.462
	S35.437,33.856,32.972,33.856z M32.972,18.238c-2.465,0-4.462-1.998-4.462-4.462s1.998-4.462,4.462-4.462s4.462,1.997,4.462,4.462
	S35.437,18.238,32.972,18.238z M32.972,49.475c-2.465,0-4.462-1.998-4.462-4.462c0-2.464,1.998-4.462,4.462-4.462
	s4.462,1.998,4.462,4.462C37.434,47.477,35.437,49.475,32.972,49.475z"/>
<g transform="translate(2 2)">
	<polyline fill="none" stroke="#FFFFFF" stroke-width="3" stroke-linecap="round" stroke-linejoin="round" points="103.496,16.545 
		93.021,27.02 82.499,16.499 	"/>
	<polyline fill="none" stroke="#FFFFFF" stroke-width="3" stroke-linecap="round" stroke-linejoin="round" points="82.5,36.975 
		92.975,26.5 103.497,37.021 	"/>
</g>
</svg>
