<svg xmlns="http://www.w3.org/2000/svg" width="12" height="48" viewBox="0 0 12 48">
  <path fill="#F15D2F" d="M5.972,29.162 C3.062,29.162 0.704,26.803 0.704,23.894 C0.704,20.985 3.063,18.626 5.972,18.626 C8.881,18.626 11.24,20.984 11.24,23.894 C11.24,26.804 8.882,29.162 5.972,29.162 Z M5.972,10.724 C3.062,10.724 0.704,8.365 0.704,5.456 C0.704,2.547 3.063,0.188 5.972,0.188 C8.881,0.188 11.24,2.546 11.24,5.455 C11.24,8.364 8.882,10.724 5.972,10.724 Z M5.972,47.6 C3.062,47.6 0.704,45.241 0.704,42.332 C0.704,39.423 3.063,37.064 5.972,37.064 C8.881,37.064 11.24,39.423 11.24,42.332 C11.24,45.241 8.882,47.6 5.972,47.6 Z"/>
</svg>
