<?xml version="1.0" encoding="utf-8"?>
<!-- Generator: Adobe Illustrator 17.0.0, SVG Export Plug-In . SVG Version: 6.00 Build 0)  -->
<!DOCTYPE svg PUBLIC "-//W3C//DTD SVG 1.1//EN" "http://www.w3.org/Graphics/SVG/1.1/DTD/svg11.dtd">
<svg version="1.1" id="Capa_1" xmlns="http://www.w3.org/2000/svg" xmlns:xlink="http://www.w3.org/1999/xlink" x="0px" y="0px"
	 width="12px" height="48px" viewBox="0 0 12 48" enable-background="new 0 0 12 48" xml:space="preserve">
<path fill="#FFFFFF" d="M5.972,29.162c-2.91,0-5.268-2.359-5.268-5.268s2.359-5.268,5.268-5.268s5.268,2.358,5.268,5.268
	S8.882,29.162,5.972,29.162z M5.972,10.724c-2.91,0-5.268-2.359-5.268-5.268s2.359-5.268,5.268-5.268s5.268,2.358,5.268,5.267
	S8.882,10.724,5.972,10.724z M5.972,47.6c-2.91,0-5.268-2.359-5.268-5.268s2.359-5.268,5.268-5.268s5.268,2.359,5.268,5.268
	S8.882,47.6,5.972,47.6z"/>
</svg>
