<svg xmlns="http://www.w3.org/2000/svg" width="48" height="48" viewBox="0 0 48 48">
  <path fill="#007DAD" d="M24,0 C37.256,0 48,10.745 48,24 C48,37.255 37.256,48 24,48 C10.744,48 0,37.256 0,24 C0,10.744 10.745,0 24,0 Z M20.393,37.5 L26,37.5 L26,24.009 L29.783,24.009 L30.273,19.243 L26,19.243 L26,16.44 C26,15.388 26.699,15.142 27.19,15.142 L30.205,15.142 L30.205,10.516 L26.051,10.5 C21.441,10.5 20.393,13.95 20.393,16.158 L20.393,19.243 L17.726,19.243 L17.726,24.009 L20.393,24.009 L20.393,37.5 Z"/>
</svg>
