<svg xmlns="http://www.w3.org/2000/svg" width="48" height="48" viewBox="0 0 48 48">
  <path fill="#007DAD" d="M24.001,0 C10.745,0 0,10.744 0,23.999 C0,37.254 10.746,48 24.001,48 C37.254,48 48,37.254 48,23.999 C48,10.744 37.253,0 24.001,0 Z M21.817,37.058 C20.86,37.334 19.828,37.475 18.743,37.475 C17.536,37.475 16.375,37.336 15.293,37.062 C13.197,36.535 11.648,35.532 10.927,34.24 C10.615,33.681 10.457,33.086 10.457,32.47 C10.457,31.835 10.609,31.191 10.908,30.553 C12.058,28.107 15.082,26.462 18.434,26.462 L18.531,26.462 C18.259,25.982 18.126,25.485 18.126,24.964 C18.126,24.703 18.16,24.439 18.228,24.171 C14.713,24.089 12.082,21.515 12.082,18.121 C12.082,15.722 13.997,13.389 16.737,12.445 C17.558,12.161 18.393,12.017 19.216,12.017 L26.734,12.017 C26.991,12.017 27.215,12.183 27.295,12.426 C27.377,12.672 27.287,12.938 27.08,13.089 L25.399,14.305 C25.298,14.377 25.176,14.417 25.051,14.417 L24.45,14.417 C25.229,15.348 25.684,16.674 25.684,18.167 C25.684,19.815 24.851,21.373 23.335,22.559 C22.164,23.471 22.117,23.72 22.117,24.244 C22.133,24.532 22.949,25.464 23.847,26.1 C25.944,27.584 26.725,29.038 26.725,31.468 C26.723,33.999 24.796,36.194 21.817,37.058 Z M38.797,24.163 C38.797,24.489 38.531,24.753 38.205,24.753 L33.933,24.753 L33.933,29.027 C33.933,29.354 33.669,29.619 33.341,29.619 L32.125,29.619 C31.798,29.619 31.533,29.355 31.533,29.027 L31.533,24.753 L27.258,24.753 C26.934,24.753 26.668,24.489 26.668,24.163 L26.668,22.945 C26.668,22.619 26.934,22.353 27.258,22.353 L31.532,22.353 L31.532,18.081 C31.532,17.754 31.796,17.489 32.124,17.489 L33.34,17.489 C33.667,17.489 33.932,17.753 33.932,18.081 L33.932,22.353 L38.204,22.353 C38.53,22.353 38.796,22.619 38.796,22.945 L38.797,24.163 Z M19.531,22.225 L19.531,22.224 L19.505,22.224 C17.877,22.174 16.253,20.251 15.962,18.026 C15.799,16.784 16.058,15.667 16.679,14.96 C17.079,14.503 17.602,14.263 18.191,14.263 L18.257,14.263 C19.919,14.312 21.509,16.163 21.802,18.392 C21.965,19.639 21.69,20.813 21.061,21.526 C20.662,21.983 20.144,22.225 19.531,22.225 Z M21.345,28.938 C22.529,29.745 23.314,30.278 23.533,31.136 C23.583,31.35 23.607,31.565 23.607,31.775 C23.607,33.977 21.966,35.093 18.728,35.093 C16.273,35.093 14.351,33.585 14.351,31.664 C14.351,29.896 16.597,28.344 19.155,28.344 L19.225,28.344 C19.78,28.352 20.325,28.434 20.837,28.592 C21.012,28.712 21.181,28.828 21.345,28.938 Z"/>
</svg>
