<svg xmlns="http://www.w3.org/2000/svg" width="48" height="48" viewBox="0 0 48 48">
  <path fill="#007DAD" d="M35.549,15.749 C35.249,14.999 34.95,14.548 34.499,14.098 C34.049,13.648 33.449,13.197 32.848,13.048 C32.398,12.897 31.499,12.598 30.147,12.598 C28.647,12.598 28.048,12.447 24.146,12.447 C20.244,12.447 19.646,12.447 18.145,12.598 C16.645,12.598 15.895,12.898 15.444,13.048 C14.7,13.35 14.249,13.65 13.799,14.1 C13.351,14.548 12.9,15.15 12.749,15.749 C12.6,16.199 12.301,17.098 12.301,18.45 C12.301,19.95 12.15,20.549 12.15,24.451 C12.15,28.353 12.15,28.951 12.301,30.452 C12.301,31.952 12.601,32.702 12.751,33.153 C13.051,33.903 13.35,34.354 13.801,34.804 C14.251,35.254 14.851,35.705 15.452,35.854 C15.902,36.005 16.801,36.304 18.153,36.304 C19.653,36.304 20.252,36.455 24.154,36.455 C28.056,36.455 28.654,36.455 30.155,36.304 C31.655,36.304 32.405,36.004 32.856,35.854 C33.606,35.554 34.057,35.255 34.507,34.804 C34.957,34.354 35.408,33.754 35.557,33.153 C35.708,32.703 36.007,31.804 36.007,30.452 C36.007,28.952 36.158,28.353 36.158,24.451 C36.158,20.549 36.158,19.951 36.007,18.45 C35.999,17.099 35.699,16.2 35.549,15.749 Z M24,32.1 C19.799,32.1 16.351,28.649 16.351,24.451 C16.351,20.253 19.802,16.802 24,16.802 C28.198,16.802 31.649,20.253 31.649,24.451 C31.649,28.649 28.199,32.1 24,32.1 Z M31.949,18.299 C30.899,18.299 30.149,17.549 30.149,16.499 C30.149,15.449 30.899,14.699 31.949,14.699 C32.999,14.699 33.749,15.449 33.749,16.499 C33.749,17.549 32.85,18.299 31.949,18.299 Z M24,29.401 C21.2656382,29.401 19.049,27.1843618 19.049,24.45 C19.049,21.7156382 21.2656382,19.499 24,19.499 C26.7343618,19.499 28.951,21.7156382 28.951,24.45 C28.951,27.1843618 26.7343618,29.401 24,29.401 Z M24,0 C10.801,0 0,10.801 0,24 C0,37.199 10.801,48 24,48 C37.199,48 48,37.199 48,24 C48,10.801 37.199,0 24,0 Z M38.7,30.6 C38.7,32.251 38.4,33.301 37.95,34.199 C37.5,35.249 37.049,35.999 36.299,36.9 C35.549,37.65 34.648,38.249 33.598,38.551 C32.697,38.851 31.647,39.15 29.999,39.301 C28.348,39.301 27.9,39.452 23.85,39.452 C19.8,39.452 19.35,39.452 17.701,39.301 C16.05,39.301 15,39.001 14.102,38.551 C13.052,38.101 12.302,37.65 11.401,36.9 C10.651,36.15 10.052,35.249 9.75,34.199 C9.45,33.298 9.151,32.248 9,30.6 C9,28.949 8.849,28.501 8.849,24.451 C8.849,20.401 8.849,19.951 9,18.302 C9,16.651 9.3,15.601 9.75,14.703 C10.2,13.653 10.651,12.903 11.401,12.002 C12.151,11.25 13.052,10.651 14.102,10.351 C15.003,10.051 16.053,9.752 17.701,9.601 C19.352,9.601 19.8,9.45 23.85,9.45 C27.9,9.45 28.35,9.45 29.999,9.601 C31.65,9.601 32.7,9.901 33.598,10.351 C34.648,10.801 35.398,11.252 36.299,12.002 C37.049,12.752 37.648,13.653 37.95,14.703 C38.25,15.604 38.549,16.654 38.7,18.302 C38.7,19.953 38.851,20.401 38.851,24.451 C38.851,28.501 38.848,28.949 38.7,30.6 Z"/>
</svg>
