<svg xmlns="http://www.w3.org/2000/svg" width="46" height="46" viewBox="0 0 46 46">
  <g fill="#FFFFFF">
    <rect width="2" height="44" x="22" y="1"/>
    <rect width="44" height="2" x="1" y="22"/>
    <rect width="38.112" height="2" x="3.944" y="11"/>
    <rect width="38.112" height="2" x="3.944" y="33"/>
    <path d="M23,46 C16.271,46 11,35.897 11,23 C11,10.103 16.271,0 23,0 C29.729,0 35,10.103 35,23 C35,35.897 29.729,46 23,46 Z M23,2 C17.58,2 13,11.617 13,23 C13,34.383 17.58,44 23,44 C28.421,44 33,34.383 33,23 C33,11.617 28.421,2 23,2 Z"/>
    <path d="M23,46 C10.318,46 0,35.683 0,23 C0,10.318 10.318,0 23,0 C35.683,0 46,10.318 46,23 C46,35.683 35.683,46 23,46 Z M23,2 C11.42,2 2,11.42 2,23 C2,34.579 11.42,44 23,44 C34.579,44 44,34.579 44,23 C44,11.42 34.579,2 23,2 Z"/>
  </g>
</svg>
