<svg xmlns="http://www.w3.org/2000/svg" width="48" height="48" viewBox="0 0 48 48">
  <path fill="#007DAD" d="M24,0 C10.8,0 0,10.8 0,24 C0,37.2 10.8,48 24,48 C37.2,48 48,37.2 48,24 C48,10.8 37.2,0 24,0 Z M17.367,35.891 L12.081,35.891 L12.081,18.644 L17.367,18.644 L17.367,35.891 Z M14.724,16.279 C13.055,16.279 11.664,14.888 11.664,13.219 C11.664,11.55 13.055,10.159 14.724,10.159 C16.393,10.159 17.784,11.55 17.784,13.219 C17.784,14.888 16.393,16.279 14.724,16.279 Z M37.397,35.891 L32.111,35.891 L32.111,27.545 C32.111,25.598 32.111,22.955 29.329,22.955 C26.547,22.955 26.13,25.181 26.13,27.406 L26.13,35.891 L20.844,35.891 L20.844,18.644 L25.99,18.644 L25.99,21.009 L26.129,21.009 C26.824,19.618 28.633,18.227 31.136,18.227 C36.561,18.227 37.534,21.843 37.534,26.434 L37.534,35.892 L37.397,35.892 L37.397,35.891 Z"/>
</svg>
