<?xml version="1.0" encoding="utf-8"?>
<!-- Generator: Adobe Illustrator 17.0.0, SVG Export Plug-In . SVG Version: 6.00 Build 0)  -->
<!DOCTYPE svg PUBLIC "-//W3C//DTD SVG 1.1//EN" "http://www.w3.org/Graphics/SVG/1.1/DTD/svg11.dtd">
<svg version="1.1" id="Capa_1" xmlns="http://www.w3.org/2000/svg" xmlns:xlink="http://www.w3.org/1999/xlink" x="0px" y="0px"
	 width="48px" height="48px" viewBox="0 0 48 48" enable-background="new 0 0 48 48" xml:space="preserve">
<path fill="#007AB9" d="M24,0C10.8,0,0,10.8,0,24s10.8,24,24,24s24-10.8,24-24S37.2,0,24,0z M17.367,35.891h-5.286V18.644h5.286
	V35.891z M14.724,16.279c-1.669,0-3.06-1.391-3.06-3.06s1.391-3.06,3.06-3.06s3.06,1.391,3.06,3.06S16.393,16.279,14.724,16.279z
	 M37.397,35.891h-5.286v-8.346c0-1.947,0-4.59-2.782-4.59s-3.199,2.226-3.199,4.451v8.485h-5.286V18.644h5.146v2.365h0.139
	c0.695-1.391,2.504-2.782,5.007-2.782c5.425,0,6.398,3.616,6.398,8.207v9.458L37.397,35.891L37.397,35.891z"/>
</svg>
