<svg xmlns="http://www.w3.org/2000/svg" width="19" height="24" viewBox="0 0 19 24">
  <path fill="#FFFFFF" fill-rule="evenodd" d="M9.5,17 C5.854,17 3,14.075 3,10.5 C3,6.925 5.854,4 9.5,4 C13.146,4 16,6.925 16,10.5 C16,14.075 13.146,17 9.5,17 M18.413,7.235 C17.225,4.028 14.613,1.772 11.287,1.178 C10.1,0.94 8.912,0.94 7.724,1.178 C4.4,1.772 1.786,4.028 0.598,7.235 C-0.589,10.442 0.004,14.005 2.261,16.735 L9.508,24.812 L16.752,16.617 C19.01,14.005 19.602,10.442 18.416,7.235" transform="translate(0 -1)"/>
</svg>
