<svg xmlns="http://www.w3.org/2000/svg" width="48" height="34" viewBox="0 0 48 34">
  <path fill="#FFFFFF" d="M30.464,19.119 L27.178,22.442 C25.363,24.276 22.383,24.278 20.569,22.442 L17.301,19.137 L2.43,32.944 C2.881,33.153 3.385,33.274 3.917,33.274 L43.867,33.274 C44.399,33.274 44.903,33.153 45.354,32.944 L30.464,19.119 L30.464,19.119 Z M0.722,2.394 C0.508,2.849 0.392,3.362 0.392,3.899 L0.392,29.749 C0.392,30.301 0.516,30.827 0.741,31.291 L15.63,17.467 L0.722,2.394 L0.722,2.394 Z M47.043,2.375 L32.135,17.448 L47.043,31.291 C47.267,30.827 47.392,30.301 47.392,29.749 L47.392,3.899 C47.392,3.353 47.263,2.836 47.043,2.375 L47.043,2.375 Z M3.917,0.374 C3.371,0.374 2.854,0.503 2.393,0.723 L22.239,20.79 C23.162,21.724 24.583,21.724 25.507,20.79 L45.39,0.723 C44.929,0.503 44.412,0.374 43.866,0.374 L3.917,0.374 Z"/>
</svg>
