<?xml version="1.0" encoding="utf-8"?>
<!-- Generator: Adobe Illustrator 17.0.0, SVG Export Plug-In . SVG Version: 6.00 Build 0)  -->
<!DOCTYPE svg PUBLIC "-//W3C//DTD SVG 1.1//EN" "http://www.w3.org/Graphics/SVG/1.1/DTD/svg11.dtd">
<svg version="1.1" id="Layer_1" xmlns="http://www.w3.org/2000/svg" xmlns:xlink="http://www.w3.org/1999/xlink" x="0px" y="0px"
	 width="48px" height="48px" viewBox="-12.269 -15.202 48 48" enable-background="new -12.269 -15.202 48 48" xml:space="preserve">
<path fill="#009DDD" d="M18.464,11.119l-3.286,3.323c-1.815,1.834-4.795,1.836-6.609,0l-3.268-3.305L-9.57,24.944
	c0.451,0.209,0.955,0.33,1.487,0.33h39.95c0.532,0,1.036-0.121,1.487-0.33L18.464,11.119L18.464,11.119z M-11.278-5.606
	c-0.214,0.455-0.33,0.968-0.33,1.505v25.85c0,0.552,0.124,1.078,0.349,1.542L3.63,9.467L-11.278-5.606L-11.278-5.606z M35.043-5.625
	L20.135,9.448l14.908,13.843c0.224-0.464,0.349-0.99,0.349-1.542v-25.85C35.392-4.647,35.263-5.164,35.043-5.625L35.043-5.625z
	 M-8.083-7.626c-0.546,0-1.063,0.129-1.524,0.349L10.239,12.79c0.923,0.934,2.344,0.934,3.268,0L33.39-7.277
	c-0.461-0.22-0.978-0.349-1.524-0.349H-8.083z"/>
</svg>
