<svg xmlns="http://www.w3.org/2000/svg" width="24" height="19" viewBox="0 0 24 19">
  <path fill="#FFFFFF" fill-rule="evenodd" d="M0.00733103749,16.483332 C-0.115252902,16.2069816 1.23252069,8.93026088 9.14265005,3.69173231 C17.0527794,-1.54657968 23.9276592,0.36383294 23.9545151,0.243200378 C23.9770393,0.142059612 23.9947988,4.37307888 23.9999967,5.73317312 C24.0008631,5.97270564 23.8284659,6.17780265 23.5923943,6.2180857 C22.166219,6.46194973 17.4991495,7.25959735 17.4991495,7.25959735 L15.2086058,4.85517598 C15.2086058,4.85517598 13.5766801,5.22183833 11.2876524,6.85460114 C8.99862475,8.48714737 7.52761747,10.0642503 7.52761747,10.0642503 L8.91415878,13.0815804 C8.91415878,13.0815804 6.80315939,16.8447965 6.13089694,18.0431088 C6.01199485,18.2549197 5.76271196,18.3567102 5.52967253,18.2884889 C4.21525216,17.9032011 0.0952622731,16.6817151 0.00733103749,16.483332"/>
</svg>
