<svg xmlns="http://www.w3.org/2000/svg" width="32" height="32" viewBox="0 0 32 32">
  <g fill="#F15D2F" fill-rule="evenodd">
    <path fill-rule="nonzero" d="M15 14.75C12.9289322 14.75 11.25 13.0710678 11.25 11 11.25 8.92893219 12.9289322 7.25 15 7.25 17.0710678 7.25 18.75 8.92893219 18.75 11 18.75 13.0710678 17.0710678 14.75 15 14.75zM15 13.25C16.2426407 13.25 17.25 12.2426407 17.25 11 17.25 9.75735931 16.2426407 8.75 15 8.75 13.7573593 8.75 12.75 9.75735931 12.75 11 12.75 12.2426407 13.7573593 13.25 15 13.25zM21.75 22.75L8.25 22.75 8.25 20.007C8.25 19.0367456 8.75701018 18.1413551 9.58921126 17.6442317 11.0186235 16.7898533 12.8267678 16.25 15 16.25 17.1459204 16.25 18.9514924 16.7911598 20.3992939 17.646747 21.2381727 18.1437587 21.75 19.0420062 21.75 20.017L21.75 22.75zM20.25 21.25L20.25 20.017C20.25 19.5718469 20.017701 19.1641665 19.6354307 18.9376817 18.4096897 18.2133229 16.8638193 17.75 15 17.75 13.1093012 17.75 11.5640698 18.211356 10.3586211 18.9318685 9.97993476 19.1580804 9.75 19.56415 9.75 20.007L9.75 21.25 20.25 21.25zM26.25 14C23.0743627 14 20.5 11.4256373 20.5 8.25 20.5 5.07436269 23.0743627 2.5 26.25 2.5 29.4256373 2.5 32 5.07436269 32 8.25 32 11.4256373 29.4256373 14 26.25 14zM26.25 13C28.8733526 13 31 10.8733526 31 8.25 31 5.62664744 28.8733526 3.5 26.25 3.5 23.6266474 3.5 21.5 5.62664744 21.5 8.25 21.5 10.8733526 23.6266474 13 26.25 13z"/>
    <path fill-rule="nonzero" d="M27.490035,13.1494201 C27.6623899,13.9971964 27.75,14.8676454 27.75,15.75 C27.75,22.9294531 21.9294531,28.75 14.75,28.75 C7.5705469,28.75 1.75,22.9294531 1.75,15.75 C1.75,8.5705469 7.5705469,2.75 14.75,2.75 C17.5552934,2.75 20.2186749,3.63660247 22.4297557,5.25930786 L23.3172443,4.05002547 C20.850805,2.23991318 17.8770749,1.25 14.75,1.25 C6.74211977,1.25 0.25,7.74211977 0.25,15.75 C0.25,23.7578802 6.74211977,30.25 14.75,30.25 C22.7578802,30.25 29.25,23.7578802 29.25,15.75 C29.25,14.7672632 29.1523134,13.7966993 28.959965,12.8505799 L27.490035,13.1494201 Z"/>
    <path d="M29.05,11.121286 C28.818,11.310286 28.537,11.470286 28.209,11.600286 C27.88,11.729286 27.516,11.797286 27.117,11.801286 C26.764,11.804286 26.421,11.761286 26.094,11.670286 C25.767,11.580286 25.465,11.447286 25.19,11.269286 C24.914,11.092286 24.672,10.873286 24.458,10.611286 C24.247,10.350286 24.078,10.021286 23.955,9.68328604 L23.026,9.68328604 L23.016,8.73928604 L23.746,8.73928604 C23.738,8.64628604 23.735,8.61628604 23.734,8.57928604 C23.734,8.54228604 23.733,8.50028604 23.733,8.45428604 C23.732,8.41428604 23.732,8.37128604 23.732,8.32428604 C23.731,8.27728604 23.734,8.22128604 23.739,8.14128604 L23.01,8.14128604 L23,7.20128604 L23.93,7.20128604 C24.047,6.86028604 24.21,6.54628604 24.421,6.27628604 C24.632,6.00828604 24.873,5.77928604 25.15,5.58928604 C25.425,5.40028604 25.722,5.25528604 26.045,5.15528604 C26.366,5.05628604 26.702,5.00428604 27.05,5.00028604 C27.415,4.99628604 27.738,5.03428604 28.016,5.11128604 C28.292,5.18828604 28.545,5.29928604 28.773,5.44328604 L28.274,6.49828604 C28.118,6.39328604 27.938,6.31728604 27.733,6.26828604 C27.525,6.22128604 27.3,6.19828604 27.062,6.20128604 C26.72,6.20428604 26.401,6.28428604 26.097,6.44028604 C25.796,6.59628604 25.556,6.86528604 25.38,7.20128604 L27.98,7.20128604 L27.549,8.14128604 L25.129,8.14128604 C25.116,8.21428604 25.111,8.25328604 25.112,8.30028604 L25.112,8.45028604 C25.113,8.48328604 25.113,8.52028604 25.114,8.56028604 C25.114,8.60028604 25.121,8.64628604 25.136,8.73928604 L27.296,8.73928604 L26.875,9.68328604 L25.436,9.68328604 C25.611,9.98828604 25.848,10.226286 26.142,10.370286 C26.436,10.514286 26.757,10.584286 27.105,10.580286 C27.376,10.578286 27.626,10.537286 27.848,10.458286 C28.07,10.379286 28.26,10.272286 28.419,10.137286 L29.05,11.121286 Z"/>
  </g>
</svg>
