<svg xmlns="http://www.w3.org/2000/svg" width="32" height="32" viewBox="0 0 32 32">
  <g fill="#F15D2F" fill-rule="evenodd">
    <ellipse cx="10.839" cy="19.806" fill-rule="nonzero" rx="1.306" ry="1.306"/>
    <path fill-rule="nonzero" d="M19.9596774,12.1612903 C16.739501,12.1612903 14.1290323,9.55082157 14.1290323,6.33064516 C14.1290323,3.11046876 16.739501,0.5 19.9596774,0.5 C23.1798538,0.5 25.7903226,3.11046876 25.7903226,6.33064516 C25.7903226,9.55082157 23.1798538,12.1612903 19.9596774,12.1612903 Z M19.9596774,11.1612903 C22.6275691,11.1612903 24.7903226,8.99853682 24.7903226,6.33064516 C24.7903226,3.66275351 22.6275691,1.5 19.9596774,1.5 C17.2917858,1.5 15.1290323,3.66275351 15.1290323,6.33064516 C15.1290323,8.99853682 17.2917858,11.1612903 19.9596774,11.1612903 Z"/>
    <path d="M22.05,9.12128604 C21.818,9.31028604 21.537,9.47028604 21.209,9.60028604 C20.88,9.72928604 20.516,9.79728604 20.117,9.80128604 C19.764,9.80428604 19.421,9.76128604 19.094,9.67028604 C18.767,9.58028604 18.465,9.44728604 18.19,9.26928604 C17.914,9.09228604 17.672,8.87328604 17.458,8.61128604 C17.247,8.35028604 17.078,8.02128604 16.955,7.68328604 L16.026,7.68328604 L16.016,6.73928604 L16.746,6.73928604 C16.738,6.64628604 16.735,6.61628604 16.734,6.57928604 C16.734,6.54228604 16.733,6.50028604 16.733,6.45428604 C16.732,6.41428604 16.732,6.37128604 16.732,6.32428604 C16.731,6.27728604 16.734,6.22128604 16.739,6.14128604 L16.01,6.14128604 L16,5.20128604 L16.93,5.20128604 C17.047,4.86028604 17.21,4.54628604 17.421,4.27628604 C17.632,4.00828604 17.873,3.77928604 18.15,3.58928604 C18.425,3.40028604 18.722,3.25528604 19.045,3.15528604 C19.366,3.05628604 19.702,3.00428604 20.05,3.00028604 C20.415,2.99628604 20.738,3.03428604 21.016,3.11128604 C21.292,3.18828604 21.545,3.29928604 21.773,3.44328604 L21.274,4.49828604 C21.118,4.39328604 20.938,4.31728604 20.733,4.26828604 C20.525,4.22128604 20.3,4.19828604 20.062,4.20128604 C19.72,4.20428604 19.401,4.28428604 19.097,4.44028604 C18.796,4.59628604 18.556,4.86528604 18.38,5.20128604 L20.98,5.20128604 L20.549,6.14128604 L18.129,6.14128604 C18.116,6.21428604 18.111,6.25328604 18.112,6.30028604 L18.112,6.45028604 C18.113,6.48328604 18.113,6.52028604 18.114,6.56028604 C18.114,6.60028604 18.121,6.64628604 18.136,6.73928604 L20.296,6.73928604 L19.875,7.68328604 L18.436,7.68328604 C18.611,7.98828604 18.848,8.22628604 19.142,8.37028604 C19.436,8.51428604 19.757,8.58428604 20.105,8.58028604 C20.376,8.57828604 20.626,8.53728604 20.848,8.45828604 C21.07,8.37928604 21.26,8.27228604 21.419,8.13728604 L22.05,9.12128604 Z"/>
    <polygon fill-rule="nonzero" points="14.879 18.379 21.605 18.379 21.605 16.879 14.879 16.879"/>
    <path fill-rule="nonzero" d="M13.8885592,13.3951613 L22.5967742,13.3951613 C26.8589232,13.3951613 30.3145161,16.8507542 30.3145161,21.1129032 C30.3145161,24.4526352 28.1731435,27.3605565 25.0887097,28.410665 L25.0887097,32.3145161 L19.233871,32.3145161 L19.233871,28.8306452 L17.25,28.8306452 L17.25,32.3145161 L11.3951613,32.3145161 L11.3951613,28.6562514 C9.77783857,28.310001 8.32207283,27.451891 7.23252212,26.2177419 L2.68548387,26.2177419 L2.68548387,18.6209677 L5.71860936,18.6209677 C6.19215121,17.2321562 7.05095379,16.0096703 8.18774212,15.0954706 L6.83464025,11.0370854 L7.57379152,10.8141952 C7.66317031,10.7872431 7.80735242,10.7523375 7.99882254,10.7190931 C9.16777453,10.5161311 10.4635241,10.6301795 11.6998427,11.3007969 C12.5464749,11.7600364 13.286184,12.4522911 13.8885592,13.3951613 Z M23.5887097,27.2712548 L24.1515113,27.1261894 C26.8771738,26.4236339 28.8145161,23.9631571 28.8145161,21.1129032 C28.8145161,17.6791813 26.0304961,14.8951613 22.5967742,14.8951613 L13.0245963,14.8951613 L12.8097056,14.512111 C12.3070035,13.6160265 11.6908216,13.0023679 10.984639,12.6193126 C10.2649062,12.2289073 9.50189944,12.0966533 8.78240644,12.1366105 L9.96050687,15.6701104 L9.49609435,15.990006 C8.26789912,16.8360089 7.37848514,18.1025523 7.00278864,19.5583763 L6.85760374,20.1209677 L4.18548387,20.1209677 L4.18548387,24.7177419 L7.94115483,24.7177419 L8.16632809,24.9984544 C9.17335711,26.253868 10.6271605,27.077765 12.2381007,27.2789421 L12.8951613,27.3609969 L12.8951613,30.8145161 L15.75,30.8145161 L15.75,27.3306452 L20.733871,27.3306452 L20.733871,30.8145161 L23.5887097,30.8145161 L23.5887097,27.2712548 Z"/>
  </g>
</svg>
