<svg xmlns="http://www.w3.org/2000/svg" width="32" height="32" viewBox="0 0 32 32">
  <g fill="#F15D2F" fill-rule="evenodd">
    <path fill-rule="nonzero" d="M16.75,23.25 L16.75,31.2506659 L22.4371086,31.245619 L22.4357774,29.7456196 L18.25,29.7493341 L18.25,21.75 L10.75,21.75 L10.75,29.75 L4.25,29.75 L4.25,12.928 L2.75,12.928 L2.75,31.25 L12.25,31.25 L12.25,23.25 L16.75,23.25 Z M26.25,18.2066733 L26.25,12.929 L24.75,12.929 L24.75,18.2066733 L26.25,18.2066733 Z"/>
    <polygon fill-rule="nonzero" points="5.25 4.25 7.75 4.25 7.75 8.641 9.25 8.641 9.25 2.75 3.75 2.75 3.75 12.071 5.25 12.071"/>
    <polygon fill-rule="nonzero" points="28.581 16.558 29.558 15.419 14.497 2.512 -.558 15.419 .419 16.558 14.497 4.488"/>
    <path fill-rule="nonzero" d="M12.25 13.25L12.25 16.75 16.75 16.75 16.75 13.25 12.25 13.25zM18.25 11.75L18.25 18.25 10.75 18.25 10.75 11.75 18.25 11.75zM25.5 31.5C21.6340068 31.5 18.5 28.3659932 18.5 24.5 18.5 20.6340068 21.6340068 17.5 25.5 17.5 29.3659932 17.5 32.5 20.6340068 32.5 24.5 32.5 28.3659932 29.3659932 31.5 25.5 31.5zM25.5 30.5C28.8137085 30.5 31.5 27.8137085 31.5 24.5 31.5 21.1862915 28.8137085 18.5 25.5 18.5 22.1862915 18.5 19.5 21.1862915 19.5 24.5 19.5 27.8137085 22.1862915 30.5 25.5 30.5z"/>
    <path d="M29.0500002,28.1448516 C28.741306,28.3963309 28.3674134,28.6092235 27.9309836,28.7821987 C27.4932233,28.9538433 27.0088927,29.0443227 26.4779919,29.049645 C26.0082976,29.0536367 25.5519092,28.9964218 25.11681,28.8753392 C24.6817108,28.7555871 24.2798761,28.5786202 23.913967,28.3417772 C23.5467273,28.1062648 23.2247273,27.8148681 22.9399835,27.4662566 C22.6592314,27.1189756 22.4343637,26.6812153 22.2707025,26.2314797 L21.034595,26.2314797 L21.0212893,24.9754136 L21.9926116,24.9754136 C21.981967,24.8516698 21.9779752,24.8117525 21.9766447,24.7625211 C21.9766447,24.7132897 21.9753141,24.6574054 21.9753141,24.5961987 C21.9739835,24.5429756 21.9739835,24.4857607 21.9739835,24.4232235 C21.9726529,24.3606863 21.9766447,24.286174 21.9832975,24.1797277 L21.0133058,24.1797277 L21,22.9289839 L22.237438,22.9289839 C22.3931157,22.4752566 22.61,22.057455 22.8907521,21.6981988 C23.1715042,21.3416037 23.4921736,21.0369013 23.8607439,20.7840913 C24.226653,20.532612 24.6218348,20.3396781 25.0516117,20.2066203 C25.4787274,20.074893 25.9258018,20.0057029 26.3888431,20.0003806 C26.8745043,19.9950583 27.3042811,20.0456203 27.674182,20.1480748 C28.0414217,20.2505294 28.378058,20.3982236 28.6814299,20.5898269 L28.0174712,21.9935872 C27.809901,21.8538765 27.5703968,21.7527525 27.2976282,21.6875541 C27.0208679,21.6250169 26.7214877,21.5944136 26.40481,21.5984054 C25.9497522,21.6023971 25.5252976,21.7088434 25.1208018,21.9164136 C24.7202976,22.1239839 24.4009588,22.4819095 24.1667769,22.9289839 L27.6262811,22.9289839 L27.0528018,24.1797277 L23.8328017,24.1797277 C23.8155042,24.2768599 23.8088513,24.3287525 23.8101819,24.3912897 L23.8101819,24.5908764 C23.8115125,24.6347855 23.8115125,24.6840169 23.812843,24.7372401 C23.812843,24.7904632 23.8221571,24.8516698 23.8421158,24.9754136 L26.7161654,24.9754136 L26.1559919,26.2314797 L24.2412893,26.2314797 C24.4741406,26.6373062 24.7894877,26.9539838 25.1806778,27.1455872 C25.5718679,27.3371905 25.9989836,27.430331 26.4620249,27.4250086 C26.8226117,27.4223475 27.1552563,27.3677938 27.4506448,27.2626781 C27.7460332,27.1575624 27.9988431,27.0151905 28.2104051,26.8355624 L29.0500002,28.1448516 Z"/>
  </g>
</svg>
