<svg xmlns="http://www.w3.org/2000/svg" width="32" height="32" viewBox="0 0 32 32">
  <g fill="#F15D2F">
    <path d="M0.75,4.5 L0.75,8.5 C0.75,10.712534 3.82493202,12.25 7.5,12.25 C11.175068,12.25 14.25,10.712534 14.25,8.5 L14.25,4.5 L12.75,4.5 L12.75,8.5 C12.75,9.60146601 10.452932,10.75 7.5,10.75 C4.54706798,10.75 2.25,9.60146601 2.25,8.5 L2.25,4.5 L0.75,4.5 Z"/>
    <path d="M0.75,8.5 L0.75,12.5 C0.75,14.712534 3.82493202,16.25 7.5,16.25 C11.175068,16.25 14.25,14.712534 14.25,12.5 L14.25,8.5 L12.75,8.5 L12.75,12.5 C12.75,13.601466 10.452932,14.75 7.5,14.75 C4.54706798,14.75 2.25,13.601466 2.25,12.5 L2.25,8.5 L0.75,8.5 Z"/>
    <polygon points="14.25 15.901 14.25 12.5 12.75 12.5 12.75 15.901"/>
    <path d="M0.75,12.5 L0.75,16.5 C0.75,18.712534 3.82493202,20.25 7.5,20.25 C8.63545814,20.25 9.73226507,20.1003611 10.7080878,19.818555 L10.2919122,18.377445 C9.45385893,18.6194649 8.49707738,18.75 7.5,18.75 C4.54706798,18.75 2.25,17.601466 2.25,16.5 L2.25,12.5 L0.75,12.5 Z"/>
    <path d="M.75 16.5L.75 20.5C.75 22.712534 3.82493202 24.25 7.5 24.25 8.63585707 24.25 9.73375771 24.1002491 10.7083055 23.8184921L10.2916945 22.3775079C9.45514541 22.6193674 8.49741069 22.75 7.5 22.75 4.54706798 22.75 2.25 21.601466 2.25 20.5L2.25 16.5.75 16.5zM7.5 8.25C3.82522352 8.25.75 6.71238824.75 4.5.75 2.28761176 3.82522352.75 7.5.75 11.1747765.75 14.25 2.28761176 14.25 4.5 14.25 6.71238824 11.1747765 8.25 7.5 8.25zM7.5 6.75C10.4526405 6.75 12.75 5.60132026 12.75 4.5 12.75 3.39867974 10.4526405 2.25 7.5 2.25 4.54735948 2.25 2.25 3.39867974 2.25 4.5 2.25 5.60132026 4.54735948 6.75 7.5 6.75zM18.75 8.5L18.75 12.5C18.75 14.712534 21.824932 16.25 25.5 16.25 29.175068 16.25 32.25 14.712534 32.25 12.5L32.25 8.5 30.75 8.5 30.75 12.5C30.75 13.601466 28.452932 14.75 25.5 14.75 22.547068 14.75 20.25 13.601466 20.25 12.5L20.25 8.5 18.75 8.5z"/>
    <path d="M22.2911593,19.8143371 C23.2713576,20.0985169 24.3674303,20.25 25.5,20.25 C29.175068,20.25 32.25,18.712534 32.25,16.5 L32.25,12.5 L30.75,12.5 L30.75,16.5 C30.75,17.601466 28.452932,18.75 25.5,18.75 C24.5069114,18.75 23.5514327,18.6179478 22.7088407,18.3736629 L22.2911593,19.8143371 Z"/>
    <polygon points="18.75 12.5 18.75 15.901 20.25 15.901 20.25 12.5"/>
    <path d="M22.2919122 23.816555C23.2708853 24.0992709 24.3676918 24.25 25.5 24.25 29.175068 24.25 32.25 22.712534 32.25 20.5L32.25 16.5 30.75 16.5 30.75 20.5C30.75 21.601466 28.452932 22.75 25.5 22.75 24.5065324 22.75 23.5497935 22.6185197 22.7080878 22.375445L22.2919122 23.816555zM25.5 12.25C21.8252235 12.25 18.75 10.7123882 18.75 8.5 18.75 6.28761176 21.8252235 4.75 25.5 4.75 29.1747765 4.75 32.25 6.28761176 32.25 8.5 32.25 10.7123882 29.1747765 12.25 25.5 12.25zM25.5 10.75C28.4526405 10.75 30.75 9.60132026 30.75 8.5 30.75 7.39867974 28.4526405 6.25 25.5 6.25 22.5473595 6.25 20.25 7.39867974 20.25 8.5 20.25 9.60132026 22.5473595 10.75 25.5 10.75z"/>
    <path d="M9.75,18.5 L9.75,22.5 C9.75,24.712534 12.824932,26.25 16.5,26.25 C20.175068,26.25 23.25,24.712534 23.25,22.5 L23.25,18.5 L21.75,18.5 L21.75,22.5 C21.75,23.601466 19.452932,24.75 16.5,24.75 C13.547068,24.75 11.25,23.601466 11.25,22.5 L11.25,18.5 L9.75,18.5 Z"/>
    <path d="M9.75 22.5L9.75 26.5C9.75 28.712534 12.824932 30.25 16.5 30.25 20.175068 30.25 23.25 28.712534 23.25 26.5L23.25 22.5 21.75 22.5 21.75 26.5C21.75 27.601466 19.452932 28.75 16.5 28.75 13.547068 28.75 11.25 27.601466 11.25 26.5L11.25 22.5 9.75 22.5zM16.5 22.25C12.8252235 22.25 9.75 20.7123882 9.75 18.5 9.75 16.2876118 12.8252235 14.75 16.5 14.75 20.1747765 14.75 23.25 16.2876118 23.25 18.5 23.25 20.7123882 20.1747765 22.25 16.5 22.25zM16.5 20.75C19.4526405 20.75 21.75 19.6013203 21.75 18.5 21.75 17.3986797 19.4526405 16.25 16.5 16.25 13.5473595 16.25 11.25 17.3986797 11.25 18.5 11.25 19.6013203 13.5473595 20.75 16.5 20.75z"/>
  </g>
</svg>
