<svg xmlns="http://www.w3.org/2000/svg" width="32" height="32" viewBox="0 0 32 32">
  <g fill="#F15D2F">
    <path d="M1.75 21.25L1.75 28.25 8.5 28.25 8.5 26.75 3.25 26.75 3.25 19.75 1.25 19.75 1.25 15.5C1.25 14.2572136 2.25721356 13.25 3.5 13.25L7.5 13.25C8.37676593 13.25 9.16509297 13.7598465 9.53537362 14.5404382L10.8906264 13.8975618C10.2745332 12.5987708 8.96215982 11.75 7.5 11.75L3.5 11.75C1.42878644 11.75-.25 13.4287864-.25 15.5L-.25 21.25 1.75 21.25zM5.5 10.25C3.42893219 10.25 1.75 8.57106781 1.75 6.5 1.75 4.42893219 3.42893219 2.75 5.5 2.75 7.57106781 2.75 9.25 4.42893219 9.25 6.5 9.25 8.57106781 7.57106781 10.25 5.5 10.25zM5.5 8.75C6.74264069 8.75 7.75 7.74264069 7.75 6.5 7.75 5.25735931 6.74264069 4.25 5.5 4.25 4.25735931 4.25 3.25 5.25735931 3.25 6.5 3.25 7.74264069 4.25735931 8.75 5.5 8.75zM27.75 19.75L27.75 26.75 22.5 26.75 22.5 28.25 29.25 28.25 29.25 21.25 31.25 21.25 31.25 15.5C31.25 13.4287864 29.5712136 11.75 27.5 11.75L23.5 11.75C22.0378402 11.75 20.7254668 12.5987708 20.1093736 13.8975618L21.4646264 14.5404382C21.834907 13.7598465 22.6232341 13.25 23.5 13.25L27.5 13.25C28.7427864 13.25 29.75 14.2572136 29.75 15.5L29.75 19.75 27.75 19.75zM25.5 10.25C23.4289322 10.25 21.75 8.57106781 21.75 6.5 21.75 4.42893219 23.4289322 2.75 25.5 2.75 27.5710678 2.75 29.25 4.42893219 29.25 6.5 29.25 8.57106781 27.5710678 10.25 25.5 10.25zM25.5 8.75C26.7426407 8.75 27.75 7.74264069 27.75 6.5 27.75 5.25735931 26.7426407 4.25 25.5 4.25 24.2573593 4.25 23.25 5.25735931 23.25 6.5 23.25 7.74264069 24.2573593 8.75 25.5 8.75z"/>
    <path d="M17.75 30.75L17.75 22.75 20.75 22.75 20.75 16.5C20.75 14.7052136 19.2947864 13.25 17.5 13.25L13.5 13.25C11.7052136 13.25 10.25 14.7052136 10.25 16.5L10.25 22.75 13.25 22.75 13.25 30.75 17.75 30.75zM19.25 24.25L19.25 32.25 11.75 32.25 11.75 24.25 8.75 24.25 8.75 16.5C8.75 13.8767864 10.8767864 11.75 13.5 11.75L17.5 11.75C20.1232136 11.75 22.25 13.8767864 22.25 16.5L22.25 24.25 19.25 24.25zM15.5 10.25C12.8766474 10.25 10.75 8.12335256 10.75 5.5 10.75 2.87664744 12.8766474.75 15.5.75 18.1233526.75 20.25 2.87664744 20.25 5.5 20.25 8.12335256 18.1233526 10.25 15.5 10.25zM15.5 8.75C17.2949254 8.75 18.75 7.29492544 18.75 5.5 18.75 3.70507456 17.2949254 2.25 15.5 2.25 13.7050746 2.25 12.25 3.70507456 12.25 5.5 12.25 7.29492544 13.7050746 8.75 15.5 8.75z"/>
  </g>
</svg>
