<svg xmlns="http://www.w3.org/2000/svg" width="32" height="32" viewBox="0 0 32 32">
  <g fill="#F15D2F" fill-rule="evenodd">
    <path fill-rule="nonzero" d="M11.5,22.75 L11.5,24.25 L21.25,24.25 L21.25,23.5 C21.25,21.0787864 18.9212136,18.75 16.5,18.75 L12.8819595,18.75 C11.4952141,16.9761266 8.88647751,15.75 6.5,15.75 L5.5,15.75 L5.5,17.25 L6.5,17.25 C8.54825401,17.25 10.8582157,18.3963434 11.8768387,19.9173368 L12.0996263,20.25 L16.5,20.25 C17.8421456,20.25 19.2300372,21.4266916 19.6335999,22.75 L11.5,22.75 Z"/>
    <path fill-rule="nonzero" d="M15.8977797 28.6211247C14.9610991 28.9961158 13.9046289 28.952289 12.9984102 28.4991796L5.83962318 24.8633027 5.16037682 26.2006973 12.3233768 29.8386973C13.6171533 30.4856021 15.1206749 30.5479746 16.4587538 30.0122732L30.7822203 24.1948753 31.3501126 23.9642286 31.2371541 23.3617836C31.1623836 22.9630073 30.9072086 22.4417988 30.3654519 21.9464784 29.5352244 21.1874132 28.2639922 20.75 26.5 20.75L19.861 20.75 19.861 22.25 26.5 22.25C27.9078828 22.25 28.8163381 22.5625868 29.3532981 23.0535216 29.3798872 23.0778316 29.4049588 23.1019058 29.428577 23.1256556L15.8977797 28.6211247zM25.75 19.75C22.4362915 19.75 19.75 17.0637085 19.75 13.75 19.75 10.4362915 22.4362915 7.75 25.75 7.75 29.0637085 7.75 31.75 10.4362915 31.75 13.75 31.75 17.0637085 29.0637085 19.75 25.75 19.75zM25.75 18.25C28.2352814 18.25 30.25 16.2352814 30.25 13.75 30.25 11.2647186 28.2352814 9.25 25.75 9.25 23.2647186 9.25 21.25 11.2647186 21.25 13.75 21.25 16.2352814 23.2647186 18.25 25.75 18.25z"/>
    <path fill-rule="nonzero" d="M2.25 15.25L2.25 26.75 4.75 26.75 4.75 15.25 2.25 15.25zM6.25 13.75L6.25 28.25.75 28.25.75 13.75 6.25 13.75zM13.75 13.75C10.4362915 13.75 7.75 11.0637085 7.75 7.75 7.75 4.4362915 10.4362915 1.75 13.75 1.75 17.0637085 1.75 19.75 4.4362915 19.75 7.75 19.75 11.0637085 17.0637085 13.75 13.75 13.75zM13.75 12.25C16.2352814 12.25 18.25 10.2352814 18.25 7.75 18.25 5.26471863 16.2352814 3.25 13.75 3.25 11.2647186 3.25 9.25 5.26471863 9.25 7.75 9.25 10.2352814 11.2647186 12.25 13.75 12.25z"/>
    <path d="M16.05 10.121286C15.818 10.310286 15.537 10.470286 15.209 10.600286 14.88 10.729286 14.516 10.797286 14.117 10.801286 13.764 10.804286 13.421 10.761286 13.094 10.670286 12.767 10.580286 12.465 10.447286 12.19 10.269286 11.914 10.092286 11.672 9.87328604 11.458 9.61128604 11.247 9.35028604 11.078 9.02128604 10.955 8.68328604L10.026 8.68328604 10.016 7.73928604 10.746 7.73928604C10.738 7.64628604 10.735 7.61628604 10.734 7.57928604 10.734 7.54228604 10.733 7.50028604 10.733 7.45428604 10.732 7.41428604 10.732 7.37128604 10.732 7.32428604 10.731 7.27728604 10.734 7.22128604 10.739 7.14128604L10.01 7.14128604 10 6.20128604 10.93 6.20128604C11.047 5.86028604 11.21 5.54628604 11.421 5.27628604 11.632 5.00828604 11.873 4.77928604 12.15 4.58928604 12.425 4.40028604 12.722 4.25528604 13.045 4.15528604 13.366 4.05628604 13.702 4.00428604 14.05 4.00028604 14.415 3.99628604 14.738 4.03428604 15.016 4.11128604 15.292 4.18828604 15.545 4.29928604 15.773 4.44328604L15.274 5.49828604C15.118 5.39328604 14.938 5.31728604 14.733 5.26828604 14.525 5.22128604 14.3 5.19828604 14.062 5.20128604 13.72 5.20428604 13.401 5.28428604 13.097 5.44028604 12.796 5.59628604 12.556 5.86528604 12.38 6.20128604L14.98 6.20128604 14.549 7.14128604 12.129 7.14128604C12.116 7.21428604 12.111 7.25328604 12.112 7.30028604L12.112 7.45028604C12.113 7.48328604 12.113 7.52028604 12.114 7.56028604 12.114 7.60028604 12.121 7.64628604 12.136 7.73928604L14.296 7.73928604 13.875 8.68328604 12.436 8.68328604C12.611 8.98828604 12.848 9.22628604 13.142 9.37028604 13.436 9.51428604 13.757 9.58428604 14.105 9.58028604 14.376 9.57828604 14.626 9.53728604 14.848 9.45828604 15.07 9.37928604 15.26 9.27228604 15.419 9.13728604L16.05 10.121286zM28.05 16.121286C27.818 16.310286 27.537 16.470286 27.209 16.600286 26.88 16.729286 26.516 16.797286 26.117 16.801286 25.764 16.804286 25.421 16.761286 25.094 16.670286 24.767 16.580286 24.465 16.447286 24.19 16.269286 23.914 16.092286 23.672 15.873286 23.458 15.611286 23.247 15.350286 23.078 15.021286 22.955 14.683286L22.026 14.683286 22.016 13.739286 22.746 13.739286C22.738 13.646286 22.735 13.616286 22.734 13.579286 22.734 13.542286 22.733 13.500286 22.733 13.454286 22.732 13.414286 22.732 13.371286 22.732 13.324286 22.731 13.277286 22.734 13.221286 22.739 13.141286L22.01 13.141286 22 12.201286 22.93 12.201286C23.047 11.860286 23.21 11.546286 23.421 11.276286 23.632 11.008286 23.873 10.779286 24.15 10.589286 24.425 10.400286 24.722 10.255286 25.045 10.155286 25.366 10.056286 25.702 10.004286 26.05 10.000286 26.415 9.99628604 26.738 10.034286 27.016 10.111286 27.292 10.188286 27.545 10.299286 27.773 10.443286L27.274 11.498286C27.118 11.393286 26.938 11.317286 26.733 11.268286 26.525 11.221286 26.3 11.198286 26.062 11.201286 25.72 11.204286 25.401 11.284286 25.097 11.440286 24.796 11.596286 24.556 11.865286 24.38 12.201286L26.98 12.201286 26.549 13.141286 24.129 13.141286C24.116 13.214286 24.111 13.253286 24.112 13.300286L24.112 13.450286C24.113 13.483286 24.113 13.520286 24.114 13.560286 24.114 13.600286 24.121 13.646286 24.136 13.739286L26.296 13.739286 25.875 14.683286 24.436 14.683286C24.611 14.988286 24.848 15.226286 25.142 15.370286 25.436 15.514286 25.757 15.584286 26.105 15.580286 26.376 15.578286 26.626 15.537286 26.848 15.458286 27.07 15.379286 27.26 15.272286 27.419 15.137286L28.05 16.121286z"/>
  </g>
</svg>
