<svg xmlns="http://www.w3.org/2000/svg" width="32" height="32" viewBox="0 0 32 32">
  <g fill="#F15D2F" fill-rule="evenodd">
    <path fill-rule="nonzero" d="M15.4612819,16.180482 C12.1475734,16.180482 9.4612819,13.4941905 9.4612819,10.180482 C9.4612819,6.86677354 12.1475734,4.18048204 15.4612819,4.18048204 C18.7749904,4.18048204 21.4612819,6.86677354 21.4612819,10.180482 C21.4612819,13.4941905 18.7749904,16.180482 15.4612819,16.180482 Z M15.4612819,14.680482 C17.9465633,14.680482 19.9612819,12.6657634 19.9612819,10.180482 C19.9612819,7.69520067 17.9465633,5.68048204 15.4612819,5.68048204 C12.9760005,5.68048204 10.9612819,7.69520067 10.9612819,10.180482 C10.9612819,12.6657634 12.9760005,14.680482 15.4612819,14.680482 Z"/>
    <path d="M17.7612819,12.5517681 C17.5292819,12.7407681 17.2482819,12.9007681 16.9202819,13.0307681 C16.5912819,13.1597681 16.2272819,13.2277681 15.8282819,13.2317681 C15.4752819,13.2347681 15.1322819,13.1917681 14.8052819,13.1007681 C14.4782819,13.0107681 14.1762819,12.8777681 13.9012819,12.6997681 C13.6252819,12.5227681 13.3832819,12.3037681 13.1692819,12.0417681 C12.9582819,11.7807681 12.7892819,11.4517681 12.6662819,11.1137681 L11.7372819,11.1137681 L11.7272819,10.1697681 L12.4572819,10.1697681 C12.4492819,10.0767681 12.4462819,10.0467681 12.4452819,10.0097681 C12.4452819,9.97276808 12.4442819,9.93076808 12.4442819,9.88476808 C12.4432819,9.84476808 12.4432819,9.80176808 12.4432819,9.75476808 C12.4422819,9.70776808 12.4452819,9.65176808 12.4502819,9.57176808 L11.7212819,9.57176808 L11.7112819,8.63176808 L12.6412819,8.63176808 C12.7582819,8.29076808 12.9212819,7.97676808 13.1322819,7.70676808 C13.3432819,7.43876808 13.5842819,7.20976808 13.8612819,7.01976808 C14.1362819,6.83076808 14.4332819,6.68576808 14.7562819,6.58576808 C15.0772819,6.48676808 15.4132819,6.43476808 15.7612819,6.43076808 C16.1262819,6.42676808 16.4492819,6.46476808 16.7272819,6.54176808 C17.0032819,6.61876808 17.2562819,6.72976808 17.4842819,6.87376808 L16.9852819,7.92876808 C16.8292819,7.82376808 16.6492819,7.74776808 16.4442819,7.69876808 C16.2362819,7.65176808 16.0112819,7.62876808 15.7732819,7.63176808 C15.4312819,7.63476808 15.1122819,7.71476808 14.8082819,7.87076808 C14.5072819,8.02676808 14.2672819,8.29576808 14.0912819,8.63176808 L16.6912819,8.63176808 L16.2602819,9.57176808 L13.8402819,9.57176808 C13.8272819,9.64476808 13.8222819,9.68376808 13.8232819,9.73076808 L13.8232819,9.88076808 C13.8242819,9.91376808 13.8242819,9.95076808 13.8252819,9.99076808 C13.8252819,10.0307681 13.8322819,10.0767681 13.8472819,10.1697681 L16.0072819,10.1697681 L15.5862819,11.1137681 L14.1472819,11.1137681 C14.3222819,11.4187681 14.5592819,11.6567681 14.8532819,11.8007681 C15.1472819,11.9447681 15.4682819,12.0147681 15.8162819,12.0107681 C16.0872819,12.0087681 16.3372819,11.9677681 16.5592819,11.8887681 C16.7812819,11.8097681 16.9712819,11.7027681 17.1302819,11.5677681 L17.7612819,12.5517681 Z"/>
    <path fill-rule="nonzero" d="M25.2946845,21.3294252 L26.2606103,21.5882442 L28.2808603,14.0485686 L27.7978974,13.919159 C25.9575174,13.4260307 23.701963,14.7282757 23.2088347,16.5686557 L22.4348812,19.4570894 C20.7651132,20.1438872 19.2534584,21.9213705 18.7556632,23.7791674 L18.5455699,24.5632466 L19.5114957,24.8220656 L19.7215891,24.0379865 C20.1610133,22.3980329 21.5704912,20.7989229 23.0126443,20.3076768 L23.2653041,20.2216123 L24.1747605,16.8274747 C24.4817392,15.6818145 25.8315334,14.7830212 27.0403357,14.8145661 L25.2946845,21.3294252 Z"/>
    <path fill-rule="nonzero" d="M30.8249277,19.0730851 C30.9259173,19.91771 30.659904,20.7678327 30.0936136,21.4064451 L25.7383287,26.256138 L26.4823434,26.9243012 L30.8397224,22.0722617 C31.5976791,21.2175199 31.9527718,20.0827181 31.8175524,18.9518827 L30.2655831,6.49949208 L30.2150456,6.09400037 L29.8076103,6.06279052 C29.7972401,6.06204932 29.7972401,6.06204932 29.7811364,6.06130109 C29.2700072,6.04109126 28.6191844,6.26094458 28.0110311,6.91096978 C27.5269134,7.42841937 27.1411984,8.16550786 26.8779269,9.1480505 L25.4831169,14.3535523 L26.4490428,14.6123713 L27.8438528,9.40686955 C28.0665747,8.57566002 28.3757361,7.98486292 28.741266,7.59416596 C28.9380353,7.38384885 29.1397939,7.2432803 29.3398454,7.15741709 L30.8249277,19.0730851 Z"/>
    <path fill-rule="nonzero" d="M26.4594769 29.5276277L27.0410314 27.3572368 17.8139278 24.8848418 17.2323733 27.0552327 26.4594769 29.5276277zM17.106821 23.6600969L28.2657763 26.65013 27.1665837 30.7523726 16.0076284 27.7623395 17.106821 23.6600969zM8.79551257 16.5686557C8.30238424 14.7282757 6.04682981 13.4260307 4.20644982 13.919159L3.72348691 14.0485686 5.74373691 21.5882442 6.70966273 21.3294252 4.9640115 14.8145661C6.17281386 14.7830212 7.52260802 15.6818145 7.82958674 16.8274747L8.73904319 20.2216123 8.99170296 20.3076768C10.4338561 20.7989229 11.843334 22.3980329 12.2827582 24.0379865L12.4928516 24.8220656 13.4587774 24.5632466 13.248684 23.7791674C12.7508888 21.9213705 11.2392341 20.1438872 9.56946606 19.4570894L8.79551257 16.5686557z"/>
    <path fill-rule="nonzero" d="M3.2630813,7.59416596 C3.62861118,7.98486292 3.93777258,8.57566002 4.1604945,9.40686955 L5.55530449,14.6123713 L6.52123032,14.3535523 L5.12642032,9.1480505 C4.86314882,8.16550786 4.47743381,7.42841937 3.99331618,6.91096978 C3.3851629,6.26094458 2.73434005,6.04109126 2.2232109,6.06130109 C2.20710717,6.06204932 2.20710717,6.06204932 2.19673699,6.06279052 L1.78930169,6.09400037 L0.187096859,18.9494092 C0.0515754694,20.0827181 0.406668195,21.2175199 1.16253073,22.0699151 L5.52200385,26.9243012 L6.26601859,26.256138 L1.90863957,21.4040985 C1.34444329,20.7678327 1.07842996,19.91771 1.17972154,19.0706117 L2.66450164,7.15741686 C2.86455311,7.24328014 3.06631184,7.38384874 3.2630813,7.59416596 Z"/>
    <path fill-rule="nonzero" d="M15.9967188,27.7623395 L4.83776353,30.7523726 L3.73857094,26.65013 L14.8975263,23.6600969 L15.9967188,27.7623395 Z M14.1904195,24.8848418 L4.96331581,27.3572368 L5.54487031,29.5276277 L14.771974,27.0552327 L14.1904195,24.8848418 Z"/>
  </g>
</svg>
