<svg xmlns="http://www.w3.org/2000/svg" width="46" height="46" viewBox="0 0 46 46">
  <path fill="#007DAD" d="M45.414,42.586 L35.477,32.649 C38.301,29.199 40,24.795 40,20 C40,8.972 31.028,0 20,0 C8.972,0 0,8.972 0,20 C0,31.028 8.972,40 20,40 C24.795,40 29.199,38.301 32.649,35.477 L42.586,45.414 C42.977,45.805 43.488,46 44,46 C44.512,46 45.023,45.805 45.414,45.414 C46.195,44.633 46.195,43.367 45.414,42.586 Z M4,20 C4,11.178 11.178,4 20,4 C28.822,4 36,11.178 36,20 C36,24.335 34.261,28.267 31.451,31.151 C31.396,31.196 31.337,31.234 31.286,31.286 C31.235,31.338 31.196,31.396 31.151,31.451 C28.267,34.261 24.335,36 20,36 C11.178,36 4,28.822 4,20 Z"/>
</svg>
