<svg xmlns="http://www.w3.org/2000/svg" width="34" height="34" viewBox="0 0 34 34">
  <path fill="#F1F2F2" d="M33,3.23521152 C31.7922805,3.77074772 30.4931279,4.1329631 29.1306756,4.2947292 C30.5217635,3.46128215 31.5893193,2.14253681 32.0932056,0.568582848 C30.7915411,1.34073964 29.3492105,1.90089242 27.8154469,2.20282231 C26.5866274,0.894124554 24.835836,0.0762512554 22.8971548,0.0762512554 C19.1775393,0.0762512554 16.1607524,3.09303821 16.1607524,6.81265363 C16.1607524,7.34065415 16.2205355,7.85458804 16.3360827,8.34792439 C10.7375692,8.06709443 5.77356054,5.38539439 2.45082467,1.30858737 C1.8710791,2.30329814 1.53850408,3.46128215 1.53850408,4.69562778 C1.53850408,7.03219333 2.72864035,9.09496223 4.53519587,10.3026818 C3.43146882,10.2680176 2.3920463,9.96508296 1.48424713,9.45918713 C1.48374475,9.48782275 1.48374475,9.51645836 1.48374475,9.54459159 C1.48374475,12.8085491 3.80674606,15.5309419 6.88783755,16.1493706 C6.32316336,16.3041034 5.72683927,16.3859912 5.1134343,16.3859912 C4.67837393,16.3859912 4.2568778,16.3442937 3.84593164,16.2659226 C4.70299051,18.9415941 7.19026981,20.8893182 10.1387332,20.9440775 C7.83281278,22.7511354 4.92855876,23.827734 1.77160802,23.827734 C1.22903851,23.827734 0.69149279,23.7960841 0.165501792,23.7332867 C3.14511269,25.6453418 6.68688588,26.7601212 10.490901,26.7601212 C22.881581,26.7601212 29.6576713,16.4955099 29.6576713,7.59284849 C29.6576713,7.30096619 29.6511404,7.01008865 29.6380786,6.721723 C30.9553168,5.77222636 32.0972246,4.58610912 33,3.23521152 L33,3.23521152 Z" transform="translate(1 4)"/>
</svg>
