<svg xmlns="http://www.w3.org/2000/svg" width="34" height="34" viewBox="0 0 34 34">
  <g fill="none" fill-rule="evenodd">
    <g fill="#FFFFFF" fill-rule="nonzero" transform="translate(3)">
      <path d="M17.9182273 23.5078684C17.917181 23.3331529 17.8648678 23.1512432 17.7989531 22.9878329 17.7110669 22.7730356 17.5227392 22.6661508 17.2862833 22.6435405 17.0090231 22.6168193 16.787215 22.7267873 16.5863321 22.9015028 16.5057697 22.9703613 16.4691505 23.0731351 16.4691505 23.0731351L16.4733355 28.6198385 16.4733355 28.7565277C16.4733355 28.7565277 16.5214637 28.8202475 16.5287876 28.8284694 16.6920049 29.0021572 16.8824251 29.1398741 17.1262048 29.1892055 17.5279705 29.2703969 17.8115083 29.1059587 17.8899781 28.7400839 17.9098572 28.6486152 17.9213661 28.5540633 17.9213661 28.4605391 17.9234586 26.8089637 17.9265974 25.1584161 17.9182273 23.5078684zM17.9182273 23.5078684C17.917181 23.3331529 17.8648678 23.1512432 17.7989531 22.9878329 17.7110669 22.7730356 17.5227392 22.6661508 17.2862833 22.6435405 17.0090231 22.6168193 16.787215 22.7267873 16.5863321 22.9015028 16.5057697 22.9703613 16.4691505 23.0731351 16.4691505 23.0731351L16.4733355 28.6198385 16.4733355 28.7565277C16.4733355 28.7565277 16.5214637 28.8202475 16.5287876 28.8284694 16.6920049 29.0021572 16.8824251 29.1398741 17.1262048 29.1892055 17.5279705 29.2703969 17.8115083 29.1059587 17.8899781 28.7400839 17.9098572 28.6486152 17.9213661 28.5540633 17.9213661 28.4605391 17.9234586 26.8089637 17.9265974 25.1584161 17.9182273 23.5078684zM24.2408058 15.1431067C17.5583122 15.0023065 10.8726798 15.0023065 4.18913986 15.1431067 1.87061694 15.1914104.0166356112 17.0536721.0166356112 19.3321679L.0166356112 29.5848848C.0166356112 31.8644083 1.87061694 33.72667 4.18913986 33.7749737 10.8726798 33.9157738 17.5583122 33.9157738 24.2408058 33.7749737 26.560375 33.72667 28.4143563 31.8644083 28.4143563 29.5848848L28.4143563 19.3321679C28.4143563 17.0537749 26.560375 15.1914104 24.2408058 15.1431067zM6.15193272 30.5192016L4.22471286 30.5192016 4.22471286 19.8173631 2.22948578 19.8173631 2.22948578 18.027043 8.15134486 18.027043 8.15134486 19.8132521 6.15193272 19.8132521 6.15193272 30.5192016 6.15193272 30.5192016zM13.0489107 26.0772141L13.0489107 30.5201266 11.3424527 30.5201266 11.3424527 29.5047212C11.280723 29.5694687 11.2461963 29.6044118 11.2137621 29.6403826 10.8465231 30.047367 10.4301097 30.3865206 9.89860717 30.5663748 9.63913349 30.6537326 9.37233595 30.683537 9.09926082 30.6372888 8.72679053 30.5766522 8.47673323 30.3659659 8.3260711 30.0329787 8.1858716 29.7256849 8.1502986 29.3968087 8.14925233 29.065877 8.14506728 27.8428684 8.1471598 21.3701728 8.1471598 21.3074808L9.84943272 21.3074808C9.85257152 21.3640064 9.85884911 26.0104111 9.85989537 28.276574 9.85989537 28.3999026 9.86094164 28.5263144 9.88605199 28.6465597 9.94882789 28.9507703 10.18633 29.081293 10.4845155 28.9744083 10.8276904 28.8510797 11.0892566 28.6188108 11.3089722 28.3402937 11.3414064 28.3002119 11.3414064 28.2282703 11.3414064 28.1707169L11.3414064 21.2972034 13.0489107 21.2930925C13.0489107 21.2931952 13.0489107 24.5376622 13.0489107 26.0772141zM19.5409841 29.6321607C19.3128983 30.306357 18.8106912 30.6496216 18.0887685 30.6424275 17.5018139 30.6372888 17.0257634 30.4081031 16.633414 29.9898137 16.5894709 29.9435654 16.4681042 29.8171536 16.4681042 29.8171536L16.4681042 30.5180711 14.7585074 30.5180711 14.7585074 18.0259125 16.4681042 18.0259125 16.4681042 22.1378933C16.4681042 22.1378933 16.5643606 21.9487895 16.6522468 21.8511543 16.9169518 21.5603044 17.2392014 21.3352297 17.636782 21.2365669 18.2927901 21.0752119 19.0492396 21.2745932 19.4091547 22.0279253 19.6215465 22.472936 19.6811836 22.9477511 19.6811836 23.4307881 19.6843224 25.1769154 19.6843224 26.9230427 19.6822298 28.66917 19.6811836 28.9959908 19.6466568 29.3188033 19.5409841 29.6321607zM25.8551925 29.280777C25.5590995 30.132772 24.9470346 30.6055317 24.0493393 30.7350267 23.4927264 30.8151903 22.9413449 30.8038851 22.4192587 30.5716163 21.7046598 30.2550729 21.2997553 29.6826227 21.1260753 28.9539563 21.0455129 28.6148026 21.0057549 28.2592052 21.0015698 27.9108019 20.9879684 26.5428823 20.994246 25.1739349 20.9973848 23.8060153 20.998431 23.0907095 21.172111 22.4309015 21.6711793 21.883117 22.2403474 21.2572244 22.9685478 21.0239278 23.8003283 21.0763425 24.0503856 21.0917585 24.3056742 21.1318403 24.5431764 21.2089207 25.3519391 21.4699662 25.7840465 22.0650267 25.9535414 22.8543297 26.0184098 23.1585402 26.0424739 23.4740558 26.0477052 23.7854605 26.0613067 24.5151547 26.0424739 26.1235651 26.0424739 26.1235651L22.7687112 26.1235651 22.7687112 28.428782C22.7687112 28.8429605 23.1097935 29.1780032 23.5314382 29.1780032 23.9520367 29.1780032 24.2931191 28.8429605 24.2931191 28.428782L24.2931191 27.2437998 26.0518903 27.2437998C26.0518903 27.243697 26.0780469 28.6425516 25.8551925 29.280777zM24.2931191 23.4000587C24.2931191 22.9869079 23.9520367 22.6508375 23.5314382 22.6508375 23.1097935 22.6508375 22.7687112 22.9869079 22.7687112 23.4000587L22.7687112 24.6939812 24.2931191 24.6939812 24.2931191 23.4000587zM17.7989531 22.9879356C17.7110669 22.7731383 17.5227392 22.6662536 17.2862833 22.6436433 17.0090231 22.6169221 16.787215 22.7268901 16.5863321 22.9016056 16.5057697 22.9704641 16.4691505 23.0732379 16.4691505 23.0732379L16.4733355 28.6199413 16.4733355 28.7566305C16.4733355 28.7566305 16.5214637 28.8203503 16.5287876 28.8285722 16.6920049 29.00226 16.8824251 29.1399769 17.1262048 29.1893083 17.5279705 29.2704996 17.8115083 29.1060615 17.8899781 28.7401867 17.9098572 28.648718 17.9213661 28.5541661 17.9213661 28.4606419 17.9234586 26.8090665 17.9265974 25.1585188 17.9182273 23.5079712 17.917181 23.3331529 17.8648678 23.1512432 17.7989531 22.9879356zM22.1689921 3.28773471L22.168469 12.5624559 20.4189049 12.5624559 20.4209975 11.5660637C20.2275431 11.7532148 20.0624425 11.9280331 19.8810202 12.0850715 19.5593983 12.363383 19.1950889 12.5708834 18.7689452 12.6527941 18.1147158 12.7784865 17.5574752 12.5753026 17.34885 11.9097393 17.279378 11.6880562 17.2374228 11.449107 17.2356441 11.2176604L17.2356441 3.28773471 18.9720253 3.28773471 18.9720253 10.3607322C18.9720253 10.4544619 18.979663 10.5492194 18.9964032 10.6410992 19.049135 10.9325658 19.2684321 11.0697688 19.554167 10.972442 19.9024686 10.8540466 20.1682199 10.6171529 20.3936899 10.3380192 20.4257056 10.298143 20.4199512 10.2237347 20.4199512 10.1652564L20.4199512 3.28773471 22.1689921 3.28773471zM7.69820756 4.89943385C7.31841341 3.32689154 6.52272899.00719416785 6.52272899.00719416785L4.5317916.00719416785C4.5317916.00719416785 6.06143081 4.99038869 6.74547878 7.21276991 6.770066 7.29313905 6.78136566 7.38039403 6.78136566 7.46456579L6.78063328 12.5605032 8.61651422 12.5605032 8.61578183 7.46456579C8.61578183 7.38039403 8.62708149 7.29313905 8.65166872 7.21276991 9.33571668 4.99038869 10.8653559.00719416785 10.8653559.00719416785L8.87441851.00719416785C8.87441851.00719416785 8.07862946 3.32689154 7.69893994 4.89943385L7.69820756 4.89943385zM13.2616163 3.05556863L13.2616163 3.05556863C11.8780357 3.05556863 10.7564397 4.15730405 10.7564397 5.51638514L10.7564397 10.3322639C10.7564397 11.691345 11.8780357 12.7930804 13.2616163 12.7930804L13.2616163 12.7930804C14.6451969 12.7930804 15.7667929 11.691345 15.7667929 10.3322639L15.7667929 5.51638514C15.7668975 4.15730405 14.6451969 3.05556863 13.2616163 3.05556863zM13.9845853 10.4294879C13.9845853 10.8210562 13.6602432 11.1395523 13.2617209 11.1395523 12.8631986 11.1395523 12.5388565 10.8210562 12.5388565 10.4294879L12.5388565 5.41905832C12.5388565 5.02749004 12.8631986 4.70899395 13.2617209 4.70899395 13.6602432 4.70899395 13.9845853 5.02759282 13.9845853 5.41905832L13.9845853 10.4294879z"/>
    </g>
  </g>
</svg>
