<svg xmlns="http://www.w3.org/2000/svg" width="48" height="48" viewBox="0 0 48 48">
  <path fill="#007DAD" d="M24,0 C37.256,0 48,10.745 48,24 C48,37.255 37.256,48 24,48 C10.744,48 0,37.256 0,24 C0,10.744 10.745,0 24,0 Z M36.755,13.433 C35.684,14.069 34.499,14.53 33.236,14.778 C32.228,13.701 30.786,13.027 29.193,13.027 C26.135,13.027 23.655,15.508 23.655,18.568 C23.655,19.002 23.703,19.423 23.796,19.83 C19.193,19.599 15.111,17.394 12.38,14.043 C11.903,14.859 11.63,15.811 11.63,16.827 C11.63,18.749 12.608,20.444 14.095,21.438 C13.186,21.408 12.333,21.159 11.585,20.745 L11.585,20.814 C11.585,23.498 13.495,25.739 16.028,26.248 C15.563,26.374 15.074,26.442 14.569,26.442 C14.212,26.442 13.866,26.407 13.526,26.343 C14.233,28.544 16.277,30.146 18.701,30.191 C16.805,31.676 14.417,32.562 11.82,32.562 C11.373,32.562 10.934,32.535 10.5,32.484 C12.951,34.056 15.863,34.972 18.992,34.972 C29.181,34.972 34.753,26.531 34.753,19.21 C34.753,18.97 34.748,18.73 34.738,18.493 C35.82,17.713 36.759,16.736 37.501,15.625 C36.508,16.066 35.44,16.363 34.32,16.496 C35.463,15.813 36.341,14.727 36.755,13.433 Z"/>
</svg>
