<?xml version="1.0" encoding="utf-8"?>
<!-- Generator: Adobe Illustrator 17.0.0, SVG Export Plug-In . SVG Version: 6.00 Build 0)  -->
<!DOCTYPE svg PUBLIC "-//W3C//DTD SVG 1.1//EN" "http://www.w3.org/Graphics/SVG/1.1/DTD/svg11.dtd">
<svg version="1.1" id="Capa_1" xmlns="http://www.w3.org/2000/svg" xmlns:xlink="http://www.w3.org/1999/xlink" x="0px" y="0px"
	 width="48px" height="48px" viewBox="0 0 48 48" enable-background="new 0 0 48 48" xml:space="preserve">
<path fill="#55ACEE" d="M24,0c13.256,0,24,10.745,24,24S37.256,48,24,48S0,37.256,0,24S10.745,0,24,0z M36.755,13.433
	c-1.071,0.636-2.256,1.097-3.519,1.345c-1.008-1.077-2.45-1.751-4.043-1.751c-3.058,0-5.538,2.481-5.538,5.541
	c0,0.434,0.048,0.855,0.141,1.262c-4.603-0.231-8.685-2.436-11.416-5.787c-0.477,0.816-0.75,1.768-0.75,2.784
	c0,1.922,0.978,3.617,2.465,4.611c-0.909-0.03-1.762-0.279-2.51-0.693v0.069c0,2.684,1.91,4.925,4.443,5.434
	c-0.465,0.126-0.954,0.194-1.459,0.194c-0.357,0-0.703-0.035-1.043-0.099c0.707,2.201,2.751,3.803,5.175,3.848
	c-1.896,1.485-4.284,2.371-6.881,2.371c-0.447,0-0.886-0.027-1.32-0.078c2.451,1.572,5.363,2.488,8.492,2.488
	c10.189,0,15.761-8.441,15.761-15.762c0-0.24-0.005-0.48-0.015-0.717c1.082-0.78,2.021-1.757,2.763-2.868
	c-0.993,0.441-2.061,0.738-3.181,0.871C35.463,15.813,36.341,14.727,36.755,13.433z"/>
</svg>
