<?xml version="1.0" encoding="utf-8"?>
<!-- Generator: Adobe Illustrator 17.0.0, SVG Export Plug-In . SVG Version: 6.00 Build 0)  -->
<!DOCTYPE svg PUBLIC "-//W3C//DTD SVG 1.1//EN" "http://www.w3.org/Graphics/SVG/1.1/DTD/svg11.dtd">
<svg version="1.1" id="Layer_1" xmlns="http://www.w3.org/2000/svg" xmlns:xlink="http://www.w3.org/1999/xlink" x="0px" y="0px"
	 width="184.62px" height="34.327px" viewBox="0 0 184.62 34.327" enable-background="new 0 0 184.62 34.327" xml:space="preserve">
<g>
	<defs>
		<rect id="SVGID_5_" x="0" y="0" width="184.62" height="34.327"/>
	</defs>
	<clipPath id="SVGID_2_">
		<use xlink:href="#SVGID_5_"  overflow="visible"/>
	</clipPath>
	<path clip-path="url(#SVGID_2_)" fill="#009DDC" d="M38.117,0.342c-0.142,2.535-2.232,4.242-3.324,6.381
		c-0.469,1.276-1.577,2.031-2.372,3.18c-0.72,0.736-1.418,1.547-2.013,2.371c0.104,0.594,0.738,0.754,1.1,1.187
		c0.807,0.486,0.896,1.405,1.594,1.962c0.415,0,0.415,0.606,0.864,0.535c0.955,1.024,1.724,2.087,2.518,3.2
		c0.123,0.391,0.324,0.795,0.664,1.076c0.628,0.92,1.15,1.886,1.798,2.824c0.086,1.041,0.969,1.74,1.239,2.714
		c0.394,0.522,0.555,1.132,0.915,1.652c0.559,1.225,0.937,2.501,1.601,3.668c0.125,0.271-0.037,0.537-0.182,0.736
		c-0.252,0.197-0.448-0.161-0.736-0.109c-1.47-0.541-2.877-1.31-4.243-2.137c-1.399-1.131-2.944-1.94-4.324-3.126
		c-0.546-0.143-0.761-0.776-1.263-1.028c-1.33-0.823-2.391-2.011-3.739-2.784c-0.607-0.469-1.219-0.917-1.833-1.403
		c-0.464-0.054-0.626-0.594-1.078-0.755c-1.004-0.61-1.919-1.454-2.944-2.031c-0.093,0.146,0,0.362-0.093,0.506
		c-0.68,0.663-0.503,1.686-0.99,2.425c-0.015,1.061-0.754,1.833-1.057,2.766c-0.847,1.513-1.58,3.057-2.461,4.551
		c-1.169,1.541-1.799,3.412-3.45,4.65c-0.361,0.45-0.776,0.683-1.224,0.974c-0.199-0.055-0.485-0.017-0.538-0.271
		c-0.198-0.376,0.053-0.951-0.216-1.292c0.232-0.521,0.088-1.114,0.197-1.694l-0.089-0.246c0.016-0.791,0.409-1.459,0.25-2.265
		c0.217-0.506,0.307-1.061,0.362-1.618c0.25-0.681,0.466-1.421,0.535-2.158c0.236-0.433,0.323-0.989,0.27-1.489
		c0.179-0.472,0.216-1.029,0.703-1.369c0.074-0.304,0-0.608,0.055-0.935c0.484-1.47,1.076-2.893,1.456-4.4
		c0-0.108-0.11-0.148-0.183-0.163c-1.061-0.054-2.049,0.163-3.039-0.109c-1.613-0.017-3.251-0.231-4.792-0.558
		c-0.633-0.123-1.386-0.051-1.962-0.412c-0.375,0.017-0.809,0.089-1.167-0.112c-0.736-0.354-1.639-0.301-2.374-0.698
		c-0.557,0.073-0.95-0.287-1.454-0.342C0.612,14.234,0.343,13.821,0,13.552V13.39c0.902-1.224,2.338-1.562,3.631-2.029
		c1.276-0.4,2.697-0.433,4.023-0.703c0.847-0.145,1.765,0.091,2.609-0.053c1.526,0.034,3.002,0.287,4.509,0.323
		c0.502,0.073,0.972,0.303,1.476,0.287l-0.018-0.214l-1.421-1.942c-0.54-1.258-1.529-2.319-1.871-3.649
		c-0.321-0.392-0.015-0.99-0.268-1.421c-0.017-0.193,0.146-0.34,0.235-0.502c0.305-0.126,0.645,0.093,0.95-0.106
		c0.917,0.214,1.763,0.538,2.678,0.719c0.953,0.377,1.927,0.753,2.769,1.383c1.059,0.753,2.334,1.24,3.163,2.407
		c0.213,0.198,0.555,0.232,0.846,0.164c0.25-0.039,0.304-0.344,0.534-0.434c1.116-0.701,2.377-1.096,3.473-1.87
		c0.449-0.446,1.166-0.502,1.439-1.115c0.337-0.158,0.646-0.372,1.004-0.467c0.63-0.446,1.259-0.931,1.94-1.291
		c0.36-0.037,0.648-0.234,0.935-0.433c1.116-0.612,2.285-1.111,3.343-1.815c0.232-0.627,0.935-0.484,1.437-0.627
		C37.67,0.055,38.01,0.021,38.117,0.342"/>
	<path clip-path="url(#SVGID_2_)" fill="#FDB827" d="M11.746,17.642c0.362,0.252,0.341,0.753,0.665,1.007l0.161,1.116l-0.809,1.184
		c-1.021,0.538-2.552,0.774-3.504-0.092c-0.536-0.48-0.683-1.182-0.536-1.883l0.376-1.024c0.217-0.145,0.504-0.179,0.646-0.434
		c0.504-0.325,1.151-0.252,1.726-0.373C10.902,17.283,11.549,17.052,11.746,17.642"/>
	<path clip-path="url(#SVGID_2_)" fill="#F15D2F" d="M9.226,24.053c0.325,0,0.559,0.237,0.867,0.183
		c0.426,0.16,0.377,0.682,0.824,0.811c0.338,0.681,0.558,1.417,0.739,2.155c-0.127,0.431,0.231,0.683,0.107,1.081l0.124,0.069
		c0.017,0.415-0.036,0.879-0.197,1.275c0.073,0.756-0.305,1.382-0.63,2.029c-0.234,0.146-0.341,0.559-0.665,0.488
		c-0.574,0.181-0.628,1.043-1.328,0.933c-0.449,0.345-1.065,0.148-1.603,0.161c-0.301-0.161-0.736-0.12-0.95-0.393
		c-0.539-0.215-1.024-0.612-1.492-1.008c-0.181-0.393-0.592-0.574-0.647-1.023c0.163-0.541-0.175-1.024-0.036-1.563l-0.106-0.899
		l0.339-1.547c0.576-0.303,0.415-1.005,0.991-1.221c0.358-0.827,1.223-1.008,1.884-1.42c0.252-0.055,0.555,0.088,0.756-0.146
		C8.563,23.969,8.905,24.345,9.226,24.053"/>
	<path clip-path="url(#SVGID_2_)" d="M59.884,27.838L50.482,7.161c-0.375-0.85-1.127-2.249-2.456-2.759V3.655
		c1.299,0,2.593,0.133,3.885,0.133c1.263,0,2.556-0.133,3.851-0.136v0.75c-0.646,0.135-1.261,0.444-1.261,1.224
		c0,0.308,0.105,0.885,0.615,2.113l6.233,14.884l5.313-13.895c0.374-0.954,0.478-1.738,0.478-2.25c0-1.329-0.446-1.875-1.773-2.076
		V3.655c1.161,0,2.315,0.133,3.474,0.133s2.317-0.133,3.474-0.136v0.75c-1.397,0.201-2.179,1.359-2.86,3.062l-8.072,20.374"/>
	<path clip-path="url(#SVGID_2_)" d="M74.599,12.986c0,1.431,0.137,4.425,0.137,7.219v4.976c0,1.159,0.546,1.327,1.329,1.532v0.683
		c-1.022,0-2.046-0.102-3.066-0.102c-0.921,0-1.839,0.067-2.758,0.102v-0.683c0.817-0.205,1.191-0.373,1.191-1.532v-4.223
		c0-2.455-0.203-3.817-0.476-4.534c-0.273-0.677-0.615-0.918-1.432-1.054v-0.681c1.566-0.378,3.372-1.023,4.394-1.703 M72.931,7.229
		c0.987,0,1.872,0.717,1.872,1.739c0,1.02-0.885,1.735-1.872,1.735c-0.988,0-1.873-0.715-1.873-1.735
		C71.058,7.946,71.943,7.229,72.931,7.229z"/>
	<path clip-path="url(#SVGID_2_)" d="M91.695,3.24c0,2.66-0.134,6.476-0.134,11.381v8.481c0,1.226,0.275,1.906,1.054,1.906
		c0.477,0,0.721-0.136,0.956-0.27l0.507,0.508c-1.186,0.785-2.449,1.708-3.096,2.522c-1.091-0.372-2.041-1.226-2.588-2.246
		l-1.976,1.736c-0.579,0.341-1.227,0.51-2.387,0.51c-4.153,0-6.876-3.201-6.876-7.322c0-4.735,3.2-7.46,7.562-7.46
		c1.157,0,2.314,0.305,3.474,0.851V8.795c0-1.908-0.854-2.385-1.739-2.521V5.593c1.669-0.444,3.714-1.393,4.564-2.353
		 M88.256,18.947c0-3.236-0.951-4.596-3.645-4.596c-2.69,0-3.781,2.892-3.781,5.209c0,2.829,1.704,6.165,4.671,6.165
		c0.985,0,1.871-0.344,2.755-1.195V18.947z"/>
	<path clip-path="url(#SVGID_2_)" d="M96.262,16.835v-3.237c1.427-0.407,2.793-0.612,4.393-0.612c3.032,0,5.621,0.817,5.621,4.222
		c0,1.226-0.099,2.997-0.14,4.941v1.194c0,1.566,0.278,2.007,1.025,2.007c0.173,0,0.476-0.065,0.714-0.137l0.512,0.512l-2.554,2.043
		c-1.295-0.169-2.317-0.814-2.723-1.667c-1.158,0.853-2.25,1.667-3.744,1.667c-2.32,0-4.603-1.428-4.603-3.954
		c0-3.609,3.442-5.004,6.542-5.004c0.539,0,1.118,0.103,1.601,0.103c0-1.842-0.14-3.884-2.457-3.884
		c-1.666,0-2.519,0.546-3.366,1.806 M102.906,20.139c-0.375-0.065-1.023-0.171-1.641-0.171c-1.565,0-3.199,0.816-3.199,2.997
		c0,1.566,1.229,2.76,2.663,2.76c1.054,0,1.734-0.238,2.278-0.581L102.906,20.139z"/>
	<path clip-path="url(#SVGID_2_)" d="M130.068,9.1h-1.428c-1.052-3.204-4.392-4.462-7.323-4.462c-5.925,0-8.38,4.768-8.38,10.489
		c0,9.608,6.947,11.241,9.773,11.241c2.765,0,5.247-1.192,6.747-3.576l1.057,0.445l-1.057,3.777
		c-2.723,0.514-4.429,0.785-6.642,0.785c-10.149,0-14.612-6.266-14.612-12.4c0-7.017,5.417-12.198,13.048-12.198
		c4.429,0,6.129,0.751,8.545,1.364"/>
	<path clip-path="url(#SVGID_2_)" d="M132.774,16.835v-3.237c1.432-0.407,2.794-0.612,4.396-0.612c3.028,0,5.62,0.817,5.62,4.222
		c0,1.226-0.105,2.997-0.139,4.941v1.194c0,1.566,0.272,2.007,1.022,2.007c0.168,0,0.479-0.065,0.716-0.137l0.514,0.512
		l-2.558,2.043c-1.292-0.169-2.314-0.814-2.722-1.667c-1.159,0.853-2.25,1.667-3.75,1.667c-2.318,0-4.597-1.428-4.597-3.954
		c0-3.609,3.437-5.004,6.539-5.004c0.545,0,1.126,0.103,1.602,0.103c0-1.842-0.134-3.884-2.452-3.884
		c-1.671,0-2.52,0.546-3.375,1.806 M139.417,20.139c-0.375-0.065-1.026-0.171-1.638-0.171c-1.563,0-3.201,0.816-3.201,2.997
		c0,1.566,1.228,2.76,2.657,2.76c1.058,0,1.736-0.238,2.284-0.581L139.417,20.139z"/>
	<path clip-path="url(#SVGID_2_)" d="M150.765,12.986c0,1.431,0.134,4.425,0.134,7.219v4.976c0,1.159,0.547,1.327,1.327,1.532v0.683
		c-1.02,0-2.042-0.102-3.063-0.102c-0.926,0-1.84,0.067-2.762,0.102v-0.683c0.819-0.205,1.193-0.373,1.193-1.532v-4.223
		c0-2.455-0.204-3.817-0.475-4.534c-0.271-0.677-0.612-0.918-1.431-1.054v-0.681c1.568-0.378,3.375-1.023,4.392-1.703
		 M149.095,7.229c0.985,0,1.874,0.717,1.874,1.739c0,1.02-0.889,1.735-1.874,1.735c-0.988,0-1.875-0.715-1.875-1.735
		C147.22,7.946,148.107,7.229,149.095,7.229z"/>
	<path clip-path="url(#SVGID_2_)" d="M153.042,26.713c1.094-0.171,1.81-1.019,2.252-1.602l3.304-4.223l-3.918-5.314
		c-0.648-0.853-0.883-1.092-1.873-1.534v-0.683c1.022,0.035,2.08,0.106,3.101,0.106c1.026,0,2.045-0.071,3.067-0.106v0.683
		c-0.409,0.204-0.722,0.271-0.722,0.785c0,0.236,0.107,0.681,0.412,1.089l1.874,2.552l1.671-2.213
		c0.338-0.476,0.508-0.883,0.508-1.122c0-0.649-0.407-0.887-0.953-1.091v-0.683c0.922,0.035,1.808,0.106,2.727,0.106
		c0.886,0,1.806-0.071,2.689-0.106v0.683c-1.33,0.311-2.042,1.125-2.791,2.08l-2.895,3.676l3.676,5.113
		c0.508,0.676,1.299,1.531,2.148,1.804v0.683c-1.021-0.035-2.007-0.103-3.031-0.103c-1.021,0-2.011,0.068-3.031,0.103v-0.683
		c0.371-0.033,0.679-0.406,0.679-0.749c0-0.207-0.269-0.751-0.545-1.158l-1.84-2.626l-1.836,2.489
		c-0.207,0.307-0.48,0.953-0.48,1.262c0,0.546,0.273,0.716,0.718,0.782v0.683c-0.887-0.035-1.808-0.103-2.694-0.103
		c-0.746,0-1.462,0.068-2.217,0.103"/>
	<path clip-path="url(#SVGID_2_)" d="M169.188,16.835v-3.237c1.428-0.407,2.791-0.612,4.392-0.612c3.03,0,5.62,0.817,5.62,4.222
		c0,1.226-0.1,2.997-0.135,4.941v1.194c0,1.566,0.272,2.007,1.023,2.007c0.169,0,0.472-0.065,0.716-0.137l0.511,0.512l-2.558,2.043
		c-1.294-0.169-2.317-0.814-2.724-1.667c-1.161,0.853-2.249,1.667-3.746,1.667c-2.316,0-4.601-1.428-4.601-3.954
		c0-3.609,3.445-5.004,6.544-5.004c0.543,0,1.124,0.103,1.6,0.103c0-1.842-0.138-3.884-2.453-3.884
		c-1.669,0-2.521,0.546-3.373,1.806 M175.83,20.139c-0.376-0.065-1.019-0.171-1.641-0.171c-1.562,0-3.198,0.816-3.198,2.997
		c0,1.566,1.225,2.76,2.658,2.76c1.053,0,1.739-0.238,2.282-0.581L175.83,20.139z"/>
	<rect x="48.026" y="31.057" clip-path="url(#SVGID_2_)" width="136.597" height="0.831"/>
</g>
</svg>
